<?xml version="1.0" encoding="iso-8859-1"?>
<!-- Generator: Adobe Illustrator 19.0.0, SVG Export Plug-In . SVG Version: 6.00 Build 0)  -->
<svg version="1.1" id="Capa_1" xmlns="http://www.w3.org/2000/svg" xmlns:xlink="http://www.w3.org/1999/xlink" x="0px" y="0px"
	 viewBox="0 0 512 512" style="enable-background:new 0 0 512 512;" xml:space="preserve">
<path style="fill:#FFD15C;" d="M65.067,382.671c17.067-7.467,36.267,1.067,43.733,18.133c7.467,17.067-1.067,36.267-18.133,43.733
	C73.6,450.938,0,445.604,0,445.604S48,389.071,65.067,382.671z"/>
<g>
	<path style="fill:#F3705A;" d="M87.467,391.204c8.533-3.2,17.067,0,21.333,8.533c3.2,8.533,0,17.067-8.533,21.333
		c-8.533,3.2-43.733,1.067-43.733,1.067S78.933,395.471,87.467,391.204z"/>
	<path style="fill:#F3705A;" d="M102.4,348.538l69.333-32c-28.8-36.267-82.133-44.8-120.533-18.133
		c-10.667,7.467-19.2,17.067-25.6,27.733C53.333,320.804,82.133,329.338,102.4,348.538z"/>
	<path style="fill:#F3705A;" d="M142.933,436.004l69.333-32c8.533,45.867-19.2,90.667-65.067,103.467
		c-12.8,3.2-25.6,4.267-37.333,2.133C131.2,491.471,144,464.804,142.933,436.004z"/>
</g>
<path style="fill:#E8EAE9;" d="M439.467,312.271c-85.333,81.067-131.2,83.2-301.867,132.267l-44.8-97.067
	c148.267-97.067,180.267-130.133,296.533-141.867C420.267,235.471,438.4,270.671,439.467,312.271z"/>
<path style="fill:#F3705A;" d="M390.4,204.538c29.867,29.867,48,65.067,49.067,106.667L512,213.071L390.4,204.538z"/>
<path style="fill:#415A6B;" d="M75.733,349.604L124.8,456.271c4.267-3.2,8.533-7.467,12.8-11.733l-44.8-97.067
	C87.467,347.471,81.067,348.538,75.733,349.604z"/>
<path style="fill:#FFD15C;" d="M361.6,39.204c0,0,16-5.333,19.2-7.467s10.667-5.333,11.733-6.4s6.4-3.2,8.533-2.133
	c1.067,1.067,8.533,10.667,7.467,12.8c-1.067,2.133-2.133,2.133-2.133,2.133s2.133,3.2-1.067,5.333
	c-3.2,2.133-11.733,2.133-14.933,1.067c-3.2-1.067-7.467-2.133-7.467-2.133l-17.067,10.667L361.6,39.204z"/>
<path style="fill:#E8EAE9;" d="M348.8,42.404l18.133-7.467c0,0,5.333,18.133,7.467,20.267l-17.067,8.533L348.8,42.404z"/>
<path style="fill:#CED6E0;" d="M246.4,376.271c0,0-1.067-10.667,8.533-19.2c10.667-8.533,10.667-18.133,10.667-18.133l-23.467,2.133
	c0,0-6.4,5.333-11.733,6.4c-4.267,1.067-4.267,1.067-4.267,1.067S220.8,381.604,246.4,376.271z"/>
<path style="fill:#344A5E;" d="M194.133,216.271c0,0-16,34.133,30.933,50.133c48,17.067,74.667,27.733,74.667,27.733
	s-28.8,21.333-41.6,32c-12.8,10.667-24.533,19.2-24.533,19.2s12.8,14.933,21.333,19.2c8.533,4.267,19.2,13.867,19.2,13.867
	l41.6-49.067c0,0,33.067-20.267,36.267-29.867c3.2-9.6-1.067-23.467-8.533-30.933C334.933,261.071,288,225.871,288,225.871
	s-14.933-34.133-19.2-54.4s-9.6-33.067-9.6-33.067L194.133,216.271z"/>
<g>
	<path style="fill:#415A6B;" d="M261.333,77.604c0,0,7.467-1.067,20.267-5.333c12.8-4.267,30.933-12.8,40.533-18.133
		s32-13.867,32-13.867s3.2,19.2,12.8,24.533c0,0-30.933,13.867-38.4,18.133s-54.4,26.667-61.867,28.8L261.333,77.604z"/>
	<path style="fill:#415A6B;" d="M260.267,75.471c0,0,7.467,5.333,6.4,28.8c-1.067,23.467-2.133,24.533,0,39.467
		c2.133,14.933,20.267,76.8,20.267,81.067s-1.067,0-1.067,0s-17.067-10.667-18.133-26.667c-1.067-16-14.933-52.267-12.8-62.933
		C257.067,124.538,260.267,75.471,260.267,75.471z"/>
	<path style="fill:#415A6B;" d="M110.933,168.271c0,0-1.067,3.2-12.8-5.333c-11.733-8.533-12.8-10.667-12.8-10.667l14.933-1.067
		C100.267,151.204,112,156.538,110.933,168.271z"/>
</g>
<path style="fill:#FFD15C;" d="M253.867,88.271c2.133-12.8,5.333-21.333,9.6-20.267c18.133,3.2,19.2-6.4,19.2-7.467
	s0-2.133,1.067-4.267s-1.067-3.2-1.067-3.2c1.067,0,2.133-1.067,1.067-2.133c-1.067-2.133-1.067-3.2-1.067-3.2
	s3.2-1.067,4.267-1.067c1.067-1.067,1.067-1.067,0-3.2c-2.133-3.2-9.6-11.733-9.6-11.733s1.067,0,0-4.267s-9.6-16-9.6-16
	l-39.467,24.533l-5.333,24.533c0,0-8.533,22.4-10.667,27.733L253.867,88.271L253.867,88.271z"/>
<g>
	<polygon style="fill:#F3F3F3;" points="259.2,71.204 251.733,76.538 253.867,88.271 259.2,78.671 	"/>
	<polygon style="fill:#F3F3F3;" points="229.333,53.071 251.733,76.538 242.133,87.204 220.8,59.471 	"/>
</g>
<path style="fill:#415A6B;" d="M252.8,40.271l4.267-2.133c0,0-2.133-4.267-1.067-8.533c1.067-4.267,4.267-6.4,5.333-9.6
	s8.533-4.267,8.533-4.267s2.133-5.333-1.067-9.6c-2.133-6.4-12.8-5.333-24.533-3.2s-24.533,8.533-26.667,13.867
	c-3.2,5.333,2.133,30.933,4.267,37.333c2.133,6.4,17.067-4.267,18.133-9.6c1.067-5.333-1.067-6.4,3.2-9.6
	C247.467,30.671,252.8,40.271,252.8,40.271z"/>
<ellipse transform="matrix(-0.4703 -0.8825 0.8825 -0.4703 328.4909 273.8487)" style="fill:#FFD15C;" cx="246.43" cy="38.341" rx="8.533" ry="5.333"/>
<path style="fill:#344A5E;" d="M259.2,71.204c0,0-6.4,8.533-5.333,21.333c1.067,12.8,2.133,41.6,2.133,41.6s3.2-10.667,6.4-16
	c3.2-6.4,5.333-13.867,5.333-21.333c0-7.467-4.267-11.733-4.267-11.733l2.133-1.067C265.6,84.004,262.4,71.204,259.2,71.204z"/>
<g>
	<path style="fill:#4ABAA5;" d="M140.8,209.871v72.533c0,3.2-2.133,5.333-5.333,5.333h-102.4c-3.2,0-5.333-2.133-5.333-5.333
		v-72.533c0-3.2,2.133-5.333,5.333-5.333h103.467C138.667,204.538,140.8,206.671,140.8,209.871z"/>
	<path style="fill:#4ABAA5;" d="M71.467,207.738v-9.6c0-1.067,1.067-1.067,1.067-1.067H96c1.067,0,1.067,1.067,1.067,1.067v9.6
		h8.533v-9.6c0-5.333-4.267-9.6-9.6-9.6H72.533c-5.333,0-9.6,4.267-9.6,9.6v9.6H71.467z"/>
</g>
<path style="fill:#FFD15C;" d="M105.6,165.071c0,0-2.133,8.533-2.133,9.6c0,1.067,4.267,6.4,5.333,9.6
	c1.067,3.2-2.133,10.667-3.2,11.733c0,0-1.067-3.2-2.133-4.267c-1.067-1.067-2.133,0-4.267,2.133
	c-2.133,1.067-4.267,4.267-5.333,6.4c0,1.067-1.067,1.067-2.133,1.067s-3.2-1.067-3.2-2.133c0,0-4.267,1.067-5.333,0
	c0,0-5.333,0-6.4-1.067c0,0-4.267,1.067-4.267-3.2c1.067-3.2,4.267-10.667,6.4-13.867c2.133-5.333,5.333-12.8,8.533-17.067
	c7.467-12.8,13.867-12.8,13.867-12.8L105.6,165.071z"/>
<path style="fill:#E8EAE9;" d="M87.467,160.804c0,0,17.067,3.2,18.133,10.667l10.667-16l-18.133-13.867L87.467,160.804z"/>
<path style="fill:#344A5E;" d="M171.733,71.204c0,0-2.133,5.333-22.4,16s-32,29.867-42.667,40.533s-21.333,24.533-21.333,24.533
	s21.333,6.4,25.6,16c0,0,10.667-18.133,17.067-24.533c6.4-6.4,12.8-13.867,13.867-14.933c1.067-1.067,20.267-8.533,25.6-10.667
	s11.733-5.333,11.733-5.333S187.733,75.471,171.733,71.204z"/>
<path style="fill:#415A6B;" d="M220.8,54.138c0,0-4.267,4.267-11.733,4.267c-7.467,1.067-11.733-2.133-20.267-3.2
	c-8.533-1.067-16,10.667-17.067,14.933c-1.067,4.267,5.333,97.067,5.333,107.733c0,10.667,1.067,52.267,1.067,52.267
	s46.933,2.133,61.867-5.333c14.933-7.467,19.2-14.933,21.333-22.4c1.067-7.467-4.267-68.267-4.267-68.267s2.133-10.667-6.4-22.4
	S220.8,54.138,220.8,54.138z"/>
<path style="fill:#344A5E;" d="M256,135.204c0,0,0-11.733-3.2-16c-3.2-5.333-8.533-7.467-10.667-11.733
	c-2.133-4.267-8.533-18.133-12.8-23.467c-4.267-5.333-9.6-17.067-9.6-17.067l3.2-3.2l-8.533-2.133l6.4-9.6
	c0,1.067,1.067,2.133,1.067,2.133c1.067,2.133,3.2,2.133,5.333,1.067c3.2,6.4,7.467,13.867,11.733,19.2
	c5.333,7.467,7.467,18.133,8.533,23.467c0,5.333,7.467,16,8.533,20.267C257.067,122.404,256,135.204,256,135.204z"/>
<g>
	<rect x="42.667" y="204.538" style="fill:#66C6B9;" width="12.8" height="83.2"/>
	<rect x="113.067" y="204.538" style="fill:#66C6B9;" width="12.8" height="83.2"/>
</g>
<path style="fill:#415A6B;" d="M231.467,347.471c0,0-1.067,7.467,1.067,12.8c3.2,6.4,11.733,5.333,14.933,7.467
	c3.2,2.133-2.133,22.4,2.133,35.2c4.267,12.8,8.533,17.067,5.333,19.2c-3.2,2.133-8.533-2.133-13.867-8.533
	c-5.333-6.4-14.933-20.267-16-26.667c-1.067-7.467-3.2-10.667-3.2-10.667l-5.333,2.133l-11.733-19.2l7.467-4.267
	C212.267,353.871,220.8,341.071,231.467,347.471z"/>
<g>
</g>
<g>
</g>
<g>
</g>
<g>
</g>
<g>
</g>
<g>
</g>
<g>
</g>
<g>
</g>
<g>
</g>
<g>
</g>
<g>
</g>
<g>
</g>
<g>
</g>
<g>
</g>
<g>
</g>
</svg>
